<?xml version="1.0" encoding="utf-8"?>
<!-- Generator: Adobe Illustrator 27.5.0, SVG Export Plug-In . SVG Version: 6.00 Build 0)  -->
<svg version="1.1" xmlns="http://www.w3.org/2000/svg" xmlns:xlink="http://www.w3.org/1999/xlink" x="0px" y="0px"
	 viewBox="0 0 750 500" style="enable-background:new 0 0 750 500;" xml:space="preserve">
<g id="BACKGROUND">
	<g>
		<g>
			
				<rect x="0" transform="matrix(-1 -1.224647e-16 1.224647e-16 -1 749.9999 500)" style="fill:#FFFFFF;" width="750" height="500"/>
		</g>
	</g>
</g>
<g id="OBJECTS">
	<path style="fill:#658FFD;" d="M84.56,247.484c26.25-74.156,80.01-45.963,153.351-73.105S316.36,53.139,426.618,64.901
		s91.007,88.872,115.054,129.627c24.047,40.754,122.452,13.172,154.531,86.664c32.079,73.492-55.497,148.343-109.016,148.343
		C533.669,429.535,9.709,458.939,84.56,247.484z"/>
	<path style="fill:#795FEE;" d="M213.427,95.021c-83.59,48.919-28.749,116.987-65.545,175.43
		c-36.796,58.443-45.37,33.405-73.125,104.375c-14.922,38.157-1.975,64.668,13.187,81.025
		c12.376,13.352,29.317,20.625,46.838,20.625h459.634c36.528,0,66.693-31.574,66.818-70.9c0.061-19.256-4.65-41.993-18.235-67.661
		c-45.284-85.56-7.01-165.866-87.248-195.444c-64.856-23.908-82.924,21.074-150.877-0.713S294.074,47.825,213.427,95.021z"/>
	<g>
		
			<linearGradient id="SVGID_1_" gradientUnits="userSpaceOnUse" x1="-1876.452" y1="1905.4532" x2="-1848.4612" y2="1905.4532" gradientTransform="matrix(-0.8416 0.5401 -0.5401 -0.8416 -277.8419 3006.1724)">
			<stop  offset="0" style="stop-color:#FFD1C1"/>
			<stop  offset="0.3861" style="stop-color:#FFCFBF"/>
			<stop  offset="0.5877" style="stop-color:#FFC9B7"/>
			<stop  offset="0.7467" style="stop-color:#FFBDA9"/>
			<stop  offset="0.8825" style="stop-color:#FFAE97"/>
			<stop  offset="1" style="stop-color:#FF9A7F"/>
		</linearGradient>
		<path style="fill:url(#SVGID_1_);" d="M267.163,404.704c-1.074-1.384-2.103-2.444-2.514-0.741l-3.945,16.345
			c0,0-3.318-1.326-3.823-3.767c-0.505-2.441-2.23-3.635-2.974-5.731c-0.744-2.096-4.726-6.075-5.046-9.817
			c-0.32-3.742,3.872-7.883,3.817-11.492c-0.054-3.609-0.712-11.245-0.712-11.245l13.314-0.038l0.322,10.376
			c0,0,10.114,8.579,5.818,23.253c-0.327,1.116-1.922,1.109-2.239-0.009L267.163,404.704z"/>
		<g>
			<path style="fill:#C3E0F4;" d="M267.2,388.182c2.457,0.066-3.086-86.353-3.078-89.032c0.039-11.763-7.791-78.133-32.908-55.922
				c-3.86,3.413,1.767,9.715,1.533,14.023c-1.049,19.389,8.219,132.543,8.219,132.543S267.197,388.182,267.2,388.182z"/>
		</g>
		<g>
			<g>
				<g>
					<g>
						<path style="fill:#0A1337;" d="M511.048,500h35.432c-0.059-17.601-1.82-35.678-6.795-51.266c0,0-6.16-22.722-26.248-12.917
							c0,0-5.556-0.25-5.188,14.526C508.395,456.189,509.62,476.992,511.048,500z"/>
					</g>
					<path style="fill:#0A1337;" d="M555.45,338.339c-1.266-0.882-2.627-1.635-4.082-2.235c-6.104-2.518-12.737-0.101-19.323,0.381
						c-17.634,1.291-22.228,40.113-22.702,61.403c-0.509,22.825-4.734,41.263,3.698,62.479c2.49,6.264,6.727,12.84,13.381,13.921
						c5.128,0.833,10.304-2.022,13.604-6.035c3.3-4.012,5.066-9.039,6.667-13.98c6.794-20.97,11.766-42.477,16.961-63.899
						c2.393-9.867,4.854-19.974,3.725-30.064C566.426,351.783,562.353,343.147,555.45,338.339z"/>
				</g>
			</g>
			<g>
				<g>
					<g>
						<path style="fill:#0A1337;" d="M560.945,500h36.002c-2.144-16.141-5.82-32.326-11.901-46.124c0,0-8.53-21.942-27.468-10.065
							c0,0-5.552,0.34-3.62,14.994C554.633,463.923,557.501,480.543,560.945,500z"/>
					</g>
					<path style="fill:#0A1337;" d="M588.886,343.409c-8.176-4.929-17.932-3.891-25.792,1.18
						c-10.513,6.782-16.799,18.514-17.983,30.898c-1.595,16.67-0.396,35.081,1.745,51.652c1.15,8.905,3.149,18.291,5.829,27.104
						c2.264,7.443,3.532,17.372,10.485,22.346c5.09,3.641,13.997,3.953,19.004-0.189c5.211-4.313,6.807-11.821,7.961-18.125
						c1.318-7.198,2.883-14.375,4.214-21.587c2.274-12.327,4.035-24.75,6.39-37.06c2.266-11.85,3.93-24.636,1.465-36.593
						C600.432,354.451,595.434,347.356,588.886,343.409z"/>
				</g>
			</g>
			<g>
				<path style="fill:#DB277D;" d="M488.774,332.514c-2.457,0.066,0.979-28.21,0.97-30.889
					c-0.039-11.763,18.204-80.608,43.321-58.397c3.86,3.413-1.767,9.715-1.534,14.023c1.049,19.389-9.981,78.698-9.981,78.698
					S488.777,332.514,488.774,332.514z"/>
			</g>
			<path style="fill:#CE3257;" d="M506.391,334.36c7.764,0.814,15.159,1.589,15.159,1.589s11.03-59.309,9.981-78.698
				c-0.233-4.308,5.393-10.61,1.533-14.023c-12.403-10.968-23.127,0.27-30.804,15.871c0.755,16.222,1.606,32.44,2.735,48.635
				c0.606,8.675,2.315,17.019,1.491,25.752C506.459,333.776,506.422,334.069,506.391,334.36z"/>
			<path style="fill:#DB277D;" d="M603.605,361.558c-2.761-13.407-6.949-25.711-6.181-39.594c0.776-14.013,1.433-28.038,2.486-42.03
				c0.447-5.943,1.63-12.09,1.775-18.018c0.194-7.957-4.237-14.243-9.819-19.511c-4.853-4.58-10.484-8.039-16.101-11.423
				c-0.223-0.134-0.446-0.269-0.669-0.403c-2.166-1.304-4.345-2.614-6.684-3.492c-9.822-3.688-22.953-3.047-32.049,2.249
				c-5.816,3.387-11.633,6.772-17.448,10.158c-6.181,3.598-9.902,10.776-9.548,18.425c0.768,16.615,1.635,33.228,2.792,49.815
				c0.606,8.675,2.315,17.019,1.491,25.752c-1.074,11.38-5.065,23.935-1.963,35.307c1.528,5.6,5.658,7.103,10.526,8.057
				c12.576,2.466,25.099,5.803,37.85,7.036c12.442,1.203,24.981-1.263,36.809-5.402
				C604.349,375.866,605.191,369.261,603.605,361.558z"/>
			<g>
				<path style="fill:#CE3257;" d="M575.732,331.763c9.612-5.671,20.759-12.585,32.111-15.174c0.011-2.244,0.01-3.828,0.011-4.325
					c0.039-11.763-10.703-85.782-35.82-63.571c-3.86,3.413-5.209,8.229-5.443,12.537c-0.815,15.055,5.651,54.166,8.583,70.904
					C575.359,332.009,575.534,331.88,575.732,331.763z"/>
			</g>
			<path style="fill:#CE3257;" d="M598.35,304.857c-0.118-0.02-0.252-0.049-0.368-0.067c-8.165-1.297-18.446,1.525-28.752,5.897
				c0.007-0.013,0.015-0.026,0.022-0.039c-8.073,0.684-36.121,3.193-56.156,6.588c0.584,5.382,1.072,10.738,0.553,16.249
				c-0.318,3.373-0.893,6.85-1.463,10.367c6.043-1.01,12.196-2.647,17.425-4.27c1.372-0.426,2.719-0.918,4.052-1.44
				c8.094,3.174,16.43,2.58,24.916,2.162c1.5-0.074,3-0.145,4.498-0.214c4-0.184,7.958-0.767,11.841-1.748
				c7.096-1.793,15.625-4.415,22.65-7.913c-0.211-2.773-0.304-5.58-0.145-8.465C597.739,316.263,598.039,310.56,598.35,304.857z"/>
			
				<linearGradient id="SVGID_00000134941907583243579610000005951068771112856499_" gradientUnits="userSpaceOnUse" x1="544.189" y1="237.1977" x2="544.189" y2="253.7887">
				<stop  offset="0" style="stop-color:#FFD1C1"/>
				<stop  offset="0.3861" style="stop-color:#FFCFBF"/>
				<stop  offset="0.5877" style="stop-color:#FFC9B7"/>
				<stop  offset="0.7467" style="stop-color:#FFBDA9"/>
				<stop  offset="0.8825" style="stop-color:#FFAE97"/>
				<stop  offset="1" style="stop-color:#FF9A7F"/>
			</linearGradient>
			<polygon style="fill:url(#SVGID_00000134941907583243579610000005951068771112856499_);" points="537.807,253.789 
				551.603,238.944 536.775,237.198 			"/>
			
				<linearGradient id="SVGID_00000023267388956665537800000011309349959781253270_" gradientUnits="userSpaceOnUse" x1="552.3198" y1="237.2958" x2="549.8265" y2="224.8296">
				<stop  offset="0" style="stop-color:#FFD1C1"/>
				<stop  offset="0.3861" style="stop-color:#FFCFBF"/>
				<stop  offset="0.5877" style="stop-color:#FFC9B7"/>
				<stop  offset="0.7467" style="stop-color:#FFBDA9"/>
				<stop  offset="0.8825" style="stop-color:#FFAE97"/>
				<stop  offset="1" style="stop-color:#FF9A7F"/>
			</linearGradient>
			<path style="fill:url(#SVGID_00000023267388956665537800000011309349959781253270_);" d="M562.392,208.667l0.728,17.847
				c0,0-3.198,21.672-26.512,11.22l-0.436-27.898L562.392,208.667z"/>
			
				<linearGradient id="SVGID_00000119821419188218487180000004630471407512088489_" gradientUnits="userSpaceOnUse" x1="546.3052" y1="216.1794" x2="542.1498" y2="179.6118">
				<stop  offset="0" style="stop-color:#FFD1C1"/>
				<stop  offset="0.3861" style="stop-color:#FFCFBF"/>
				<stop  offset="0.5877" style="stop-color:#FFC9B7"/>
				<stop  offset="0.7467" style="stop-color:#FFBDA9"/>
				<stop  offset="0.8825" style="stop-color:#FFAE97"/>
				<stop  offset="1" style="stop-color:#FF9A7F"/>
			</linearGradient>
			<path style="fill:url(#SVGID_00000119821419188218487180000004630471407512088489_);" d="M562.745,175.817l0.85,31.958
				l-2.067,0.892c-4.043,13.65-10.526,19.829-17.411,19.823c-18.697-0.019-23.188-50.767-23.188-50.767L562.745,175.817z"/>
			<polygon style="fill:#FFB5BE;" points="541.672,194.528 545.065,207.842 537.46,209.779 			"/>
			<path style="fill:#0A1123;" d="M555.751,180.183c0,0,2.174,1.465,2.348,5.61c0.485,11.531,2.004,19.758,2.004,19.758l1.541-1.274
				l2.05,18.581c4.628-12.31,8.747-25.517,9.971-38.647c0.708-7.599-1.341-17.277-10.257-18.49
				c-2.094-0.285-6.376-0.386-6.376-0.386s-0.904-0.734-1.325-1.01c-1.715-1.126-3.738-1.781-5.732-2.193
				c-9.073-1.875-11.25-0.404-19.718,2.677c-27.628,10.053-6.88,29.192-6.88,29.192l0.494-8.262
				C523.872,185.738,544.962,191.4,555.751,180.183z"/>
			
				<linearGradient id="SVGID_00000013166260603244410400000002758741803996132228_" gradientUnits="userSpaceOnUse" x1="-223.1964" y1="921.6693" x2="-213.9209" y2="921.6693" gradientTransform="matrix(0.9485 0.317 -0.317 0.9485 1064.3973 -608.1667)">
				<stop  offset="0" style="stop-color:#F4F3F1"/>
				<stop  offset="1" style="stop-color:#FFB2BC"/>
			</linearGradient>
			<path style="fill:url(#SVGID_00000013166260603244410400000002758741803996132228_);" d="M569.119,189.716
				c2.891,3.805,0.642,12.157-7.493,15.042l0.574-14.484C563.104,188.243,567.217,187.212,569.119,189.716z"/>
			<g>
				<g>
					<g>
						<g>
							
								<linearGradient id="SVGID_00000111879587978934430000000004764612979064649118_" gradientUnits="userSpaceOnUse" x1="8212.7178" y1="252.8574" x2="8212.7178" y2="233.598" gradientTransform="matrix(-1 0 0 1 8747.2451 0)">
								<stop  offset="0" style="stop-color:#E7E6FF"/>
								<stop  offset="0.3393" style="stop-color:#C9D2F8"/>
								<stop  offset="0.7637" style="stop-color:#AABDF1"/>
								<stop  offset="1" style="stop-color:#9EB5EE"/>
							</linearGradient>
							<path style="fill:url(#SVGID_00000111879587978934430000000004764612979064649118_);" d="M537.807,252.857l-6.62-5.192
								l5.951-14.067C537.138,233.598,538.123,252.533,537.807,252.857z"/>
							
								<linearGradient id="SVGID_00000168802403461373391710000007590126915986085308_" gradientUnits="userSpaceOnUse" x1="8218.6074" y1="249.8048" x2="8218.6074" y2="232.3255" gradientTransform="matrix(-1 0 0 1 8747.2451 0)">
								<stop  offset="0" style="stop-color:#F9FBFC"/>
								<stop  offset="0.9973" style="stop-color:#CDDBFF"/>
							</linearGradient>
							<polygon style="fill:url(#SVGID_00000168802403461373391710000007590126915986085308_);" points="537.138,233.598 
								531.187,247.665 520.138,249.805 537.138,232.326 							"/>
						</g>
						
							<linearGradient id="SVGID_00000125583054298051701470000005938417952925957307_" gradientUnits="userSpaceOnUse" x1="8191.4941" y1="255.6827" x2="8191.4941" y2="223.6691" gradientTransform="matrix(-1 0 0 1 8747.2451 0)">
							<stop  offset="0" style="stop-color:#F9FBFC"/>
							<stop  offset="0.3069" style="stop-color:#F0F5FD"/>
							<stop  offset="0.8031" style="stop-color:#D8E3FE"/>
							<stop  offset="0.9973" style="stop-color:#CDDBFF"/>
						</linearGradient>
						<polygon style="fill:url(#SVGID_00000125583054298051701470000005938417952925957307_);" points="570.323,228.14 
							552.57,255.683 541.179,246.05 564.6,223.669 						"/>
					</g>
					
						<linearGradient id="SVGID_00000123421910268764850710000007741598702045450909_" gradientUnits="userSpaceOnUse" x1="8205.9834" y1="252.8574" x2="8205.9834" y2="246.0504" gradientTransform="matrix(-1 0 0 1 8747.2451 0)">
						<stop  offset="0" style="stop-color:#E7E6FF"/>
						<stop  offset="0.3393" style="stop-color:#C9D2F8"/>
						<stop  offset="0.7637" style="stop-color:#AABDF1"/>
						<stop  offset="1" style="stop-color:#9EB5EE"/>
					</linearGradient>
					<polygon style="fill:url(#SVGID_00000123421910268764850710000007741598702045450909_);" points="541.179,246.05 
						537.807,252.857 544.718,248.908 					"/>
				</g>
			</g>
			<g>
				<path style="fill:#DB277D;" d="M580.01,323.232c9.612-5.671,20.759-12.585,32.111-15.174c0.012-2.244,0.01-3.828,0.012-4.325
					c0.039-11.763-10.703-85.782-35.82-63.571c-3.86,3.413-5.209,8.229-5.443,12.537c-0.815,15.055,5.651,54.166,8.583,70.903
					C579.636,323.478,579.811,323.349,580.01,323.232z"/>
			</g>
			
				<linearGradient id="SVGID_00000094590430863678582170000008521512572901162914_" gradientUnits="userSpaceOnUse" x1="584.2148" y1="333.6905" x2="566.4851" y2="314.437">
				<stop  offset="0" style="stop-color:#FFD1C1"/>
				<stop  offset="0.3861" style="stop-color:#FFCFBF"/>
				<stop  offset="0.5877" style="stop-color:#FFC9B7"/>
				<stop  offset="0.7467" style="stop-color:#FFBDA9"/>
				<stop  offset="0.8825" style="stop-color:#FFAE97"/>
				<stop  offset="1" style="stop-color:#FF9A7F"/>
			</linearGradient>
			<path style="fill:url(#SVGID_00000094590430863678582170000008521512572901162914_);" d="M599.436,300.143
				c-22.499-3.574-61.049,24.062-71.976,29.527c2.306,1.331,4.649,2.616,7.173,3.654c8.246,3.393,16.746,2.759,25.4,2.332
				c1.5-0.074,3-0.144,4.498-0.213c4-0.184,7.959-0.767,11.841-1.748c16.462-4.16,40.667-12.769,35.808-26.484
				C610.564,302.65,603.804,300.837,599.436,300.143z"/>
			
				<linearGradient id="SVGID_00000158011134231172807380000014435271675685696181_" gradientUnits="userSpaceOnUse" x1="3815.8555" y1="-1425.2213" x2="3914.5742" y2="-1425.2213" gradientTransform="matrix(-0.8715 -0.4903 -0.4903 0.8715 3212.4846 3465.6111)">
				<stop  offset="0" style="stop-color:#FFD1C1"/>
				<stop  offset="0.3861" style="stop-color:#FFCFBF"/>
				<stop  offset="0.5877" style="stop-color:#FFC9B7"/>
				<stop  offset="0.7467" style="stop-color:#FFBDA9"/>
				<stop  offset="0.8825" style="stop-color:#FFAE97"/>
				<stop  offset="1" style="stop-color:#FF9A7F"/>
			</linearGradient>
			<path style="fill:url(#SVGID_00000158011134231172807380000014435271675685696181_);" d="M493.892,318.326
				c7.018-6.114,64.641-11.292,76.815-12.324c-1.274,2.338-2.603,4.656-4.216,6.858c-5.268,7.194-12.852,11.084-20.46,15.232
				c-1.319,0.719-2.635,1.441-3.95,2.163c-3.51,1.928-7.191,3.495-11.016,4.681c-16.217,5.032-41.36,10.304-44.364-3.934
				C485.703,326.266,490.558,321.231,493.892,318.326z"/>
		</g>
		<g>
			<g>
				<g>
					<path style="fill:#394F8E;" d="M253.231,500c1.428-23.008,2.653-43.811,2.799-49.657c0.368-14.776-5.188-14.526-5.188-14.526
						c-20.089-9.804-26.247,12.917-26.247,12.917c-4.975,15.588-6.736,33.665-6.795,51.266H253.231z"/>
				</g>
				<path style="fill:#394F8E;" d="M208.829,338.339c1.266-0.882,2.627-1.635,4.082-2.235c6.105-2.518-0.556,3.618,6.031,4.1
					c17.634,1.291,35.994,45.433,35.994,57.684c0,22.831,4.734,41.263-3.698,62.479c-2.49,6.264-6.727,12.84-13.381,13.921
					c-5.128,0.833-10.304-2.022-13.604-6.035c-3.3-4.012-5.066-9.039-6.667-13.98c-6.795-20.97-11.766-42.477-16.962-63.899
					c-2.393-9.867-4.854-19.974-3.725-30.064C197.852,351.783,201.925,343.147,208.829,338.339z"/>
			</g>
		</g>
		<g>
			<g>
				<g>
					<path style="fill:#394F8E;" d="M203.333,500c3.444-19.457,6.312-36.077,6.987-41.195c1.931-14.654-3.62-14.994-3.62-14.994
						c-18.937-11.876-27.468,10.065-27.468,10.065c-6.079,13.798-9.756,29.983-11.9,46.124H203.333z"/>
				</g>
				<path style="fill:#394F8E;" d="M175.392,343.409c8.176-4.929,17.932-3.891,25.793,1.18
					c10.513,6.782,16.799,18.514,17.983,30.898c1.594,16.67,0.395,35.081-1.745,51.652c-1.15,8.905-3.149,18.291-5.829,27.104
					c-2.264,7.443-3.532,17.372-10.485,22.346c-5.09,3.641-13.997,3.953-19.003-0.189c-5.211-4.313-6.807-11.821-7.961-18.125
					c-1.318-7.198-2.883-14.375-4.214-21.587c-2.274-12.327-4.035-24.75-6.39-37.06c-2.266-11.85-3.93-24.636-1.464-36.593
					C163.847,354.451,168.845,347.356,175.392,343.409z"/>
			</g>
		</g>
		<path style="fill:#FFFFFF;" d="M160.674,361.558c2.761-13.407,6.949-25.711,6.181-39.594c-0.776-14.013-1.433-28.038-2.486-42.03
			c-0.447-5.943-1.63-12.09-1.775-18.018c-0.194-7.957,0.78-21.631,6.362-26.9c4.853-4.58,24.573-7.052,26.911-7.93
			c9.822-3.688,22.953-3.047,32.049,2.249c5.816,3.387,11.633,6.772,17.449,10.158c6.181,3.598,9.902,10.776,9.548,18.425
			c-0.768,16.615-1.635,33.228-2.792,49.815c-0.605,8.675-2.315,17.019-1.491,25.752c1.074,11.38,5.066,23.935,1.963,35.307
			c-1.528,5.6,5.477,11.781,0.61,12.735c-12.576,2.466-36.234,1.125-48.986,2.358c-12.441,1.203-24.981-1.263-36.809-5.402
			C159.929,375.866,159.087,369.261,160.674,361.558z"/>
		<path style="fill:#C3E0F4;" d="M183.843,382.887c-0.9-10.279-7.153-70.095-6.985-69.981c2.932-16.738,11.27-47.917,10.455-62.973
			c-0.233-4.308-2.597-0.477-6.457-3.89c-6.801-6.014-12.441-4.774-17.054,0.453c-1.076,5.343-1.312,11.188-1.209,15.421
			c0.145,5.929,1.328,12.076,1.775,18.018c1.053,13.992,1.71,28.017,2.486,42.03c0.768,13.883-3.419,26.187-6.181,39.594
			c-1.586,7.703-0.745,14.308,6.733,16.925C172.765,380.358,178.269,381.884,183.843,382.887z"/>
		<g>
			<path style="fill:#C3E0F4;" d="M204.216,374.616c-12.441,1.203-24.981-1.263-36.809-5.402c-3.897-1.364-5.98-3.817-6.868-6.937
				c-1.385,7.391-0.375,13.672,6.868,16.207c11.827,4.139,24.367,6.605,36.809,5.402c12.752-1.233,36.41,0.108,48.986-2.358
				c3.839-0.753,0.303-4.759-0.617-9.165C239.87,374.675,216.77,373.402,204.216,374.616z"/>
		</g>
		<path style="fill:#C3E0F4;" d="M227.916,229.336c-9.096-5.296-22.227-5.938-32.048-2.249c-0.816,0.306-1.607,0.677-2.39,1.07
			c0.421,9.491,8.344,17.918,22.791,17.063c11.114-0.658,11.431-6.642,12.685-15.28
			C228.607,229.738,228.262,229.537,227.916,229.336z"/>
		
			<linearGradient id="SVGID_00000163069573381476236990000008376978651520734384_" gradientUnits="userSpaceOnUse" x1="180.432" y1="236.8668" x2="177.9613" y2="224.5131" gradientTransform="matrix(-1 0 0 1 390.4271 0)">
			<stop  offset="0" style="stop-color:#FFD1C1"/>
			<stop  offset="0.3861" style="stop-color:#FFCFBF"/>
			<stop  offset="0.5877" style="stop-color:#FFC9B7"/>
			<stop  offset="0.7467" style="stop-color:#FFBDA9"/>
			<stop  offset="0.8825" style="stop-color:#FFAE97"/>
			<stop  offset="1" style="stop-color:#FF9A7F"/>
		</linearGradient>
		<path style="fill:url(#SVGID_00000163069573381476236990000008376978651520734384_);" d="M200.682,208.667l-0.729,17.847
			c0,0,0.716,4.854,3.942,8.859c7.474,9.282,22.547,3.859,22.733-8.057l0.273-17.481L200.682,208.667z"/>
		
			<linearGradient id="SVGID_00000031175597481683751380000009356141771858770849_" gradientUnits="userSpaceOnUse" x1="138.9383" y1="216.4109" x2="134.7828" y2="179.8425" gradientTransform="matrix(-0.9945 0.1046 0.1046 0.9945 332.2334 -14.4738)">
			<stop  offset="0" style="stop-color:#FFD1C1"/>
			<stop  offset="0.3861" style="stop-color:#FFCFBF"/>
			<stop  offset="0.5877" style="stop-color:#FFC9B7"/>
			<stop  offset="0.7467" style="stop-color:#FFBDA9"/>
			<stop  offset="0.8825" style="stop-color:#FFAE97"/>
			<stop  offset="1" style="stop-color:#FF9A7F"/>
		</linearGradient>
		<path style="fill:url(#SVGID_00000031175597481683751380000009356141771858770849_);" d="M196.125,176.859l2.499,31.872
			l2.149,0.671c5.449,13.152,12.543,18.619,19.39,17.892c18.592-1.975,17.749-52.914,17.749-52.914L196.125,176.859z"/>
		<polygon style="fill:#FFB5BE;" points="220.24,193.2 218.26,206.795 226.025,207.926 		"/>
		<path style="fill:#0A1123;" d="M204.738,180.406c0,0-2.009,1.684-1.749,5.825c0.724,11.519,0.074,19.859,0.074,19.859
			l-1.666-1.106l-0.841,17.192c-5.89-11.758-10.622-22.961-13.213-35.89c-1.499-7.483-0.474-17.322,8.266-19.462
			c2.053-0.502,6.3-1.051,6.3-1.051s22.176,1.734,24.116,1.116c0,0,6.057-12.961,13.843-8.427c13.968,8.134-2.032,31.74-2.032,31.74
			l-0.813-7.607C237.023,182.596,216.641,190.434,204.738,180.406z"/>
		
			<linearGradient id="SVGID_00000010992164647281515010000016149478014572207269_" gradientUnits="userSpaceOnUse" x1="-609.7494" y1="1051.09" x2="-600.4738" y2="1051.09" gradientTransform="matrix(-0.9101 0.4145 0.4145 0.9101 -789.6434 -507.9323)">
			<stop  offset="0" style="stop-color:#FFD1C1"/>
			<stop  offset="0.3861" style="stop-color:#FFCFBF"/>
			<stop  offset="0.5877" style="stop-color:#FFC9B7"/>
			<stop  offset="0.7467" style="stop-color:#FFBDA9"/>
			<stop  offset="0.8825" style="stop-color:#FFAE97"/>
			<stop  offset="1" style="stop-color:#FF9A7F"/>
		</linearGradient>
		<path style="fill:url(#SVGID_00000010992164647281515010000016149478014572207269_);" d="M191.838,191.286
			c-2.477,4.087,0.633,12.157,9.026,14.175l-2.087-14.344C197.667,189.191,193.468,188.596,191.838,191.286z"/>
		
			<linearGradient id="SVGID_00000077285270224922013440000009242589812564836517_" gradientUnits="userSpaceOnUse" x1="-1808.7745" y1="1979.5856" x2="-1778.3142" y2="1979.5856" gradientTransform="matrix(-0.746 0.666 -0.666 -0.746 145.955 3070.0762)">
			<stop  offset="0" style="stop-color:#FFD1C1"/>
			<stop  offset="0.3861" style="stop-color:#FFCFBF"/>
			<stop  offset="0.5877" style="stop-color:#FFC9B7"/>
			<stop  offset="0.7467" style="stop-color:#FFBDA9"/>
			<stop  offset="0.8825" style="stop-color:#FFAE97"/>
			<stop  offset="1" style="stop-color:#FF9A7F"/>
		</linearGradient>
		<path style="fill:url(#SVGID_00000077285270224922013440000009242589812564836517_);" d="M171.216,399.617l-1.368,24.591
			c0,0-3.792-0.856-4.754-3.393c-0.961-2.537-3.02-3.524-4.178-5.649c-1.159-2.125-6.12-5.719-7.105-9.685
			c-0.985-3.966,2.809-9.135,2.132-13.004c-0.677-3.869-2.692-11.961-2.692-11.961l14.3-2.323l2.125,11.095
			c0,0,9.537,8.623,8.676,18.236L171.216,399.617z"/>
		<path style="fill:#FFFFFF;" d="M174.671,387.028c-5.726,1.269-13.232,4.61-24.583,2.02c-0.011-2.244-12.899-73.717-12.9-74.213
			c-0.039-11.763,19.566-99.65,44.683-77.439c3.86,3.413,5.209,8.229,5.443,12.537c0.815,15.055-16.798,48.871-19.73,65.609
			C167.398,315.418,174.896,386.978,174.671,387.028z"/>
		<path style="fill:#C3E0F4;" d="M149.273,383.677c0.785,4.631,0.812,4.935,0.814,5.371c11.351,2.589,18.858-0.751,24.583-2.02
			c0.04-0.009-0.321-3.882-0.688-7.66L149.273,383.677z"/>
		<g>
			<path style="fill:#0A1123;" d="M255.874,268.674c6.173,0.706,12.593-2.39,15.999-7.587c3.035-4.631,4.269-11.112,9.346-13.321
				c5.203-2.264,15.095,4.021,24.548-1.793c4.447-2.735,9.349-10.728,12.438-14.937c2.599-3.541,8.503-2.853,11.425-6.134
				c2.056-2.309,1.906-5.962,0.478-8.703c-1.428-2.742-3.879-4.782-6.267-6.745c-3.296-2.709-6.673-5.466-10.674-6.947
				c-4.001-1.481-8.812-1.475-12.219,1.093c-2.883,2.173-4.283,5.724-6.06,8.866c-1.777,3.143-4.538,6.275-8.147,6.377
				c-2.277,0.065-4.431-1.117-6.708-1.19c-4.927-0.158-8.453,4.679-10.391,9.211c-1.938,4.532-3.583,9.737-7.869,12.172
				c-2.937,1.668-6.531,1.644-9.698,2.82C237.751,247.175,241.347,267.011,255.874,268.674z"/>
			<g>
				<path style="fill:#0F2363;" d="M352.909,348.883c-6.452-1.155-13.444,1.507-17.493,6.661c-1.901,2.42-3.157,5.282-4.184,8.183
					c-5.641,15.933-1.439,30.473,1.314,46.277c3.056,17.543,9.507,34.448,16.595,50.707c2.897,6.646,6.541,12.957,9.427,19.622
					c3.788,8.749,6.998,21.707,19.639,16.842c8.688-3.343,7.968-10.461,7.355-18.181c-0.719-9.054-7.183-62.281-9.428-73.267
					c-2.111-10.338-4.448-20.632-6.726-30.933C367.011,363.95,366.362,351.293,352.909,348.883z"/>
				<g>
					<path style="fill:#0F2363;" d="M386.649,500c-0.002-3.674-0.013-6.191-0.035-7.026c-0.153-5.841,0.403-10.974-4.895-14.807
						c-1.423-1.03-3.098-1.708-4.838-1.958c-0.177-0.025-0.355-0.046-0.535-0.062c-8.129-0.715-13.21,5.857-13.771,13.169
						c-0.278,3.621-0.545,7.162-0.705,10.684H386.649z"/>
				</g>
			</g>
			<g>
				<path style="fill:#0F2363;" d="M329.392,347.813c-5.988-2.665-13.414-1.751-18.578,2.285c-2.425,1.895-4.328,4.374-6.019,6.945
					c-9.287,14.122-8.685,29.244-9.791,45.248c-1.228,17.765,0.993,35.722,3.987,53.205c1.224,7.146,3.252,14.145,4.461,21.307
					c1.586,9.4,1.604,22.75,15.042,21.05c9.235-1.169,10.239-8.252,11.49-15.895c1.467-8.963,7.919-62.191,8.367-73.396
					c0.422-10.542,0.615-21.097,0.866-31.644C339.482,365.815,341.879,353.37,329.392,347.813z"/>
				<g>
					<path style="fill:#0F2363;" d="M327.614,500c0.115-1.734,0.19-2.937,0.212-3.464c0.252-5.837,1.163-10.92-3.856-15.111
						c-1.348-1.126-2.973-1.919-4.69-2.289c-0.175-0.038-0.352-0.07-0.529-0.099c-8.06-1.277-13.585,4.926-14.652,12.182
						c-0.436,2.969-0.857,5.882-1.221,8.782H327.614z"/>
				</g>
			</g>
			<path style="fill:#0A1123;" d="M319.267,190.835c-4.056,6.03-5.801,13.844-4.102,21.718c1.751,8.111,6.689,15.762,13.223,20.85
				c7.164,5.579,15.377,5.317,23.143,0.827c5.094-2.946,9.192-7.437,12.195-12.499c10.86-18.31-5.827-44.544-26.996-41.825
				C329.593,180.822,323.263,184.895,319.267,190.835z"/>
			<path style="fill:#D33965;" d="M409.299,245.77c4.831,3.565,4.391,10.989-0.887,13.851c-0.084,0.046-0.145,0.077-0.179,0.095
				c-8.407,4.223-17.452,7.162-26.637,9.136c-7.534,1.62-15.191,2.678-22.883,3.148c-6.716,0.411-29.182,2.99-24.511-9.841
				c1.164-3.198,4.158-5.315,7.157-6.639c11.358-5.015,48.285-11.016,59.711-12.793c2.179-0.339,4.389,0.209,6.163,1.519
				L409.299,245.77z"/>
			
				<linearGradient id="SVGID_00000078760038244272118230000004844988635722128793_" gradientUnits="userSpaceOnUse" x1="-924.4781" y1="361.4333" x2="-924.4781" y2="224.5066" gradientTransform="matrix(1 0 0 1 1261.9984 0)">
				<stop  offset="0" style="stop-color:#FFD1C1"/>
				<stop  offset="0.4889" style="stop-color:#FFCFBF"/>
				<stop  offset="0.665" style="stop-color:#FFCAB8"/>
				<stop  offset="0.7905" style="stop-color:#FFC0AD"/>
				<stop  offset="0.892" style="stop-color:#FFB29C"/>
				<stop  offset="0.9779" style="stop-color:#FFA086"/>
				<stop  offset="1" style="stop-color:#FF9A7F"/>
			</linearGradient>
			<path style="fill:url(#SVGID_00000078760038244272118230000004844988635722128793_);" d="M371.146,291.684
				c-0.684-7.18-15.299-39.829-15.299-39.829s-4.044-0.738-6.605-1.638c-1.275-5.493-0.385-10.599-0.385-10.599l-15.161-15.111
				c1.791,16.553-4.888,22.461-4.888,22.461c-2.377,0.129-10.08,0.52-13.565,0.979c-7.615,1.002-11.348,6.249-11.348,6.249
				s9.077,34.03,9.611,51.396c0.534,17.367-9.686,55.842-9.686,55.842l62.803-0.189c-4.274-17.364-7.161-42.023-7.161-42.026
				C357.704,306.01,372.39,304.735,371.146,291.684z"/>
			
				<linearGradient id="SVGID_00000144318175044437682920000008003779457946085004_" gradientUnits="userSpaceOnUse" x1="-925.0653" y1="376.197" x2="-925.0653" y2="248.2869" gradientTransform="matrix(1 0 0 1 1261.9984 0)">
				<stop  offset="0" style="stop-color:#F9FBFC"/>
				<stop  offset="0.2923" style="stop-color:#F1F6FD"/>
				<stop  offset="0.733" style="stop-color:#DDE6FE"/>
				<stop  offset="0.9973" style="stop-color:#CDDBFF"/>
			</linearGradient>
			<path style="fill:url(#SVGID_00000144318175044437682920000008003779457946085004_);" d="M301.231,358.053
				c9.293,5.251,19.064,9.322,30.046,10.262c13.61,1.164,26.168-1.321,37.894-7.182c-4.287-18.038-9.709-41.912-9.709-41.914
				c-1.757-13.207,14.349-14.483,13.105-27.534c-0.684-7.18-16.72-38.658-16.72-38.658s-2.078-2.059-7.543-1.566
				c-0.08,0.007-1.997,15.625-1.997,15.625l-14.817-17.678c-5.458-0.838-7.257-1.121-7.257-1.121
				c-2.377,0.13-5.505,0.372-8.991,0.83c-7.615,1.002-11.348,6.249-11.348,6.249s9.077,32.859,9.611,50.225
				C313.861,317.141,306.323,342.411,301.231,358.053z"/>
			<path style="fill:#DB277D;" d="M332.064,380.372c6.64-4.531,5.424-21.149,5.411-29.351c-0.025-17.034,3.001-21.281,2.976-38.314
				c-0.009-5.752,3.493-18.026,3.485-23.778c-0.014-9.208-6.59-24.68-6.604-33.888c-3.512-3.639-8.487-8.557-13.099-7.926
				c-2.377,0.13-5.505,0.372-8.991,0.831c-7.615,1.002-11.348,6.249-11.348,6.249s9.077,34.029,9.611,51.396
				c0.534,17.367-16.791,65.779-16.785,65.781C303.82,374.081,325.174,385.074,332.064,380.372z"/>
			<path style="fill:#DB277D;" d="M372.567,291.684c-0.684-7.18-16.72-39.829-16.72-39.829s-2.105-1.777-7.161-0.948
				c0.104,6.218,0.56,17.288,0.664,23.506c0.229,13.752,0.459,27.505,0.688,41.257c0.233,13.95,1.573,30.156,1.806,44.106
				c0.086,5.183-0.649,14.616,5.096,17.427c1.911,0.935,16.757-4.326,16.576-5.06c-4.274-17.363-9.554-51.685-9.554-51.688
				C362.205,307.249,373.81,304.735,372.567,291.684z"/>
			<path style="fill:#DB277D;" d="M270.623,307.307c-0.024-0.008-2.888,0.127-2.745-0.398c2.48-9.075,7.115-15.686,11.787-23.837
				c3.832-6.685,8.164-13.087,12.956-19.122c4.185-5.27,17.286-23.701,23.705-11.649c1.6,3.003,1.173,6.645,0.153,9.761
				c-4.591,14.023-32.292,55.836-32.292,55.836S272.002,307.752,270.623,307.307z"/>
			<g>
				<g>
					<g>
						
							<linearGradient id="SVGID_00000124121074925101100970000003488239364682532795_" gradientUnits="userSpaceOnUse" x1="-936.587" y1="218.2983" x2="-898.1104" y2="218.2983" gradientTransform="matrix(1 0 0 1 1261.9984 0)">
							<stop  offset="0" style="stop-color:#FFD1C1"/>
							<stop  offset="0.3861" style="stop-color:#FFCFBF"/>
							<stop  offset="0.5877" style="stop-color:#FFC9B7"/>
							<stop  offset="0.7467" style="stop-color:#FFBDA9"/>
							<stop  offset="0.8825" style="stop-color:#FFAE97"/>
							<stop  offset="1" style="stop-color:#FF9A7F"/>
						</linearGradient>
						<path style="fill:url(#SVGID_00000124121074925101100970000003488239364682532795_);" d="M362.12,201.159
							c1.527,8.883,7.205,24.571-15.247,40.728c0,0-9.941-2.638-19.546-16.044C315.946,209.956,358.835,182.053,362.12,201.159z"/>
					</g>
					
						<linearGradient id="SVGID_00000076606099522678043880000009204482317465341846_" gradientUnits="userSpaceOnUse" x1="-914.9973" y1="215.0315" x2="-909.3084" y2="224.8849" gradientTransform="matrix(1 0 0 1 1261.9984 0)">
						<stop  offset="0" style="stop-color:#EEA281"/>
						<stop  offset="0.246" style="stop-color:#EE9C7B"/>
						<stop  offset="0.5823" style="stop-color:#ED8A6C"/>
						<stop  offset="0.9693" style="stop-color:#EC6E52"/>
						<stop  offset="1" style="stop-color:#EC6B50"/>
					</linearGradient>
					<polygon style="fill:url(#SVGID_00000076606099522678043880000009204482317465341846_);" points="350.609,212.949 
						347.698,224.571 351.545,225.546 					"/>
				</g>
				<path style="fill:#0A1123;" d="M354.128,186.82c0.821,3.245,9.123,12.42,9.123,12.42c-11.706,10.772-28.584,4.676-28.584,4.676
					l-3.232,14.718c0,0-5.143-11.582-5.15-11.584c-0.801-0.268-6.45-2.991-6.506-3.696c-0.465-5.87,0.378-12.52,4.311-17.166
					c3.553-4.197,9.424-5.861,14.761-5.153C344.654,181.805,352.888,181.92,354.128,186.82z"/>
			</g>
			
				<linearGradient id="SVGID_00000129897606768466942890000013958241896472434836_" gradientUnits="userSpaceOnUse" x1="-934.9955" y1="229.5375" x2="-934.9955" y2="208.957" gradientTransform="matrix(1 0 0 1 1261.9984 0)">
				<stop  offset="0" style="stop-color:#FFD1C1"/>
				<stop  offset="0.3073" style="stop-color:#FFCCBB"/>
				<stop  offset="0.729" style="stop-color:#FFBDA9"/>
				<stop  offset="1" style="stop-color:#FFB19A"/>
			</linearGradient>
			<path style="fill:url(#SVGID_00000129897606768466942890000013958241896472434836_);" d="M331.435,213.784
				c0,0-3.389-7.278-7.169-3.961c-3.78,3.316-1.173,16.951,7.169,19.714V213.784z"/>
			<g>
				
					<linearGradient id="SVGID_00000025404584308211707930000017664834424638833334_" gradientUnits="userSpaceOnUse" x1="-2047.2349" y1="2132.8237" x2="-2020.088" y2="2132.8237" gradientTransform="matrix(-0.1205 0.9927 -0.9927 -0.1205 2186.3142 2632.9492)">
					<stop  offset="0" style="stop-color:#FFD1C1"/>
					<stop  offset="0.3445" style="stop-color:#FFBAA5"/>
					<stop  offset="0.7588" style="stop-color:#FFA389"/>
					<stop  offset="1" style="stop-color:#FF9A7F"/>
				</linearGradient>
				<path style="fill:url(#SVGID_00000025404584308211707930000017664834424638833334_);" d="M316.727,363.951l1.711,0.443
					c2.858,0.875,6.43-2.063,7.875-5.154l2.64-3.137c-0.023-0.264-0.803-1.373-1.769-2.633c-2.094-2.732-4.937-4.802-8.176-5.967
					l-11.755-4.228c-0.07-0.043-0.143-0.081-0.217-0.115l-1.68-0.768l-4.49,5.567c-0.645,0.766-0.672,1.894-0.027,2.66
					c5.086,6.041,12.788,12.112,14.987,13.799C316.225,364.724,316.626,363.459,316.727,363.951z"/>
				<path style="fill:#DB277D;" d="M268.746,312.401c-3.465-8.096,3.382-17.244,12.048-15.682c2.412,0.435,4.791,1.646,6.848,4.106
					c8.228,9.838,6.749,11.118,27.018,43.013l-14.292,12.508C300.368,356.346,277.569,333.017,268.746,312.401z"/>
			</g>
			
				<linearGradient id="SVGID_00000113339569540111549650000007267756259161394307_" gradientUnits="userSpaceOnUse" x1="-1336.9148" y1="1559.6947" x2="-1317.8062" y2="1559.6947" gradientTransform="matrix(0.9865 -0.1639 0.1639 0.9865 1460.975 -1580.4218)">
				<stop  offset="0" style="stop-color:#FFD1C1"/>
				<stop  offset="0.3445" style="stop-color:#FFBAA5"/>
				<stop  offset="0.7588" style="stop-color:#FFA389"/>
				<stop  offset="1" style="stop-color:#FF9A7F"/>
			</linearGradient>
			<path style="fill:url(#SVGID_00000113339569540111549650000007267756259161394307_);" d="M402.788,170.26l2.472-9.684
				c0,0,7.681-2.837,7.224-0.607c-0.457,2.23,3.053,5.359,2.921,7.386c-0.132,2.027,0.178,3.159-0.903,6.414
				c-1.081,3.254-2.831,5.36-4.087,8.407c-1.256,3.048-3.458,9.691-3.458,9.691l-7.108-1.856l-0.603-11.735
				c0,0-2.894-10.395,2.03-16.825L402.788,170.26z"/>
			
				<linearGradient id="SVGID_00000002374494795752633220000005687904690367799722_" gradientUnits="userSpaceOnUse" x1="426.1465" y1="135.6137" x2="439.6311" y2="135.6137" gradientTransform="matrix(0.9665 -0.2565 0.2565 0.9665 -49.9436 144.3233)">
				<stop  offset="0" style="stop-color:#030F4B"/>
				<stop  offset="0.1501" style="stop-color:#030E45"/>
				<stop  offset="0.5141" style="stop-color:#020C3B"/>
				<stop  offset="1" style="stop-color:#020C38"/>
			</linearGradient>
			<polygon style="fill:url(#SVGID_00000002374494795752633220000005687904690367799722_);" points="420.277,202.315 
				416.092,203.93 386.18,126.401 390.365,124.786 			"/>
			
				<linearGradient id="SVGID_00000176019063389563779530000011315638909199602341_" gradientUnits="userSpaceOnUse" x1="426.567" y1="136.6245" x2="436.0116" y2="136.6245" gradientTransform="matrix(0.9665 -0.2565 0.2565 0.9665 -49.9436 144.3233)">
				<stop  offset="0" style="stop-color:#FFD1C1"/>
				<stop  offset="0.3445" style="stop-color:#FFBAA5"/>
				<stop  offset="0.7588" style="stop-color:#FFA389"/>
				<stop  offset="1" style="stop-color:#FF9A7F"/>
			</linearGradient>
			<path style="fill:url(#SVGID_00000176019063389563779530000011315638909199602341_);" d="M400.289,162.97
				c0,0,2.989-2.818,4.423-2.582c1.434,0.237,0.856,1.35-0.065,2.691c-0.922,1.342-1.859,7.181-1.859,7.181l-4.38,0.578
				L400.289,162.97z"/>
			<path style="fill:#DB277D;" d="M411.145,256.932c0,0-15.011,1.591-16.787-9.809c-1.777-11.4,2.832-30.626,2.01-64.615
				l14.614,1.317C410.982,183.826,419.416,246.515,411.145,256.932z"/>
			<g>
				<g>
					<g>
						
							<linearGradient id="SVGID_00000006695439876696723430000014971730544107487140_" gradientUnits="userSpaceOnUse" x1="349.1019" y1="267.085" x2="349.1019" y2="245.973">
							<stop  offset="0" style="stop-color:#E7E6FF"/>
							<stop  offset="0.3393" style="stop-color:#C9D2F8"/>
							<stop  offset="0.7637" style="stop-color:#AABDF1"/>
							<stop  offset="1" style="stop-color:#9EB5EE"/>
						</linearGradient>
						<path style="fill:url(#SVGID_00000006695439876696723430000014971730544107487140_);" d="M346.307,267.085l5.609-5.285
							l-3.23-15.827C348.685,245.973,346.039,266.754,346.307,267.085z"/>
						
							<linearGradient id="SVGID_00000137829928238338566140000010650425986342053556_" gradientUnits="userSpaceOnUse" x1="354.9818" y1="263.9779" x2="354.9818" y2="245.973">
							<stop  offset="0" style="stop-color:#F9FBFC"/>
							<stop  offset="0.9973" style="stop-color:#CDDBFF"/>
						</linearGradient>
						<polygon style="fill:url(#SVGID_00000137829928238338566140000010650425986342053556_);" points="348.685,245.973 
							351.916,261.8 361.278,263.978 						"/>
					</g>
					
						<linearGradient id="SVGID_00000096773364403872999110000013912037666617871254_" gradientUnits="userSpaceOnUse" x1="334.6667" y1="267.9949" x2="334.6667" y2="244.8721">
						<stop  offset="0" style="stop-color:#F9FBFC"/>
						<stop  offset="0.3069" style="stop-color:#F0F5FD"/>
						<stop  offset="0.8031" style="stop-color:#D8E3FE"/>
						<stop  offset="0.9973" style="stop-color:#CDDBFF"/>
					</linearGradient>
					<polygon style="fill:url(#SVGID_00000096773364403872999110000013912037666617871254_);" points="325.884,246.631 
						335.37,267.995 343.45,260.157 328.114,244.872 					"/>
				</g>
				
					<linearGradient id="SVGID_00000147190185193131465400000003399955261119817098_" gradientUnits="userSpaceOnUse" x1="343.379" y1="267.085" x2="343.379" y2="260.1567">
					<stop  offset="0" style="stop-color:#E7E6FF"/>
					<stop  offset="0.3393" style="stop-color:#C9D2F8"/>
					<stop  offset="0.7637" style="stop-color:#AABDF1"/>
					<stop  offset="1" style="stop-color:#9EB5EE"/>
				</linearGradient>
				<polygon style="fill:url(#SVGID_00000147190185193131465400000003399955261119817098_);" points="343.45,260.157 
					346.307,267.085 340.451,263.065 				"/>
			</g>
			
				<rect x="308.889" y="357.751" transform="matrix(0.8398 -0.5429 0.5429 0.8398 -144.6617 231.9906)" style="fill:#D33965;" width="23.668" height="6.68"/>
		</g>
		<g>
			<g>
				
					<linearGradient id="SVGID_00000006681571778485799360000000087957905072264612_" gradientUnits="userSpaceOnUse" x1="382.9483" y1="223.5591" x2="382.9483" y2="325.0416" gradientTransform="matrix(-0.999 -0.0443 -0.0443 0.999 821.3109 190.2)">
					<stop  offset="0" style="stop-color:#FFD1C1"/>
					<stop  offset="0.0091" style="stop-color:#FFCFBF"/>
					<stop  offset="0.1167" style="stop-color:#FFBCA7"/>
					<stop  offset="0.2392" style="stop-color:#FFAD95"/>
					<stop  offset="0.386" style="stop-color:#FFA289"/>
					<stop  offset="0.5793" style="stop-color:#FF9C81"/>
					<stop  offset="1" style="stop-color:#FF9A7F"/>
				</linearGradient>
				<path style="fill:url(#SVGID_00000006681571778485799360000000087957905072264612_);" d="M425.794,396.711
					c27.659-3.284,20.016,48.536,16.898,62.889c-1.417,6.522-3.568,12.875-4.972,19.413c-1.842,8.58-2.403,20.856-14.691,18.744
					c-8.445-1.452-9.079-8.006-9.918-15.087c-1.586-13.386-2.322-26.921-3.244-40.365
					C408.863,427.694,404.841,399.2,425.794,396.711z"/>
				<g>
					
						<linearGradient id="SVGID_00000080195121820541858130000001672148469806833318_" gradientUnits="userSpaceOnUse" x1="214.5908" y1="601.4033" x2="214.5908" y2="479.8681" gradientTransform="matrix(-1 0 0 1 640.8789 0)">
						<stop  offset="0" style="stop-color:#FFD1C1"/>
						<stop  offset="0.0764" style="stop-color:#FFCBBA"/>
						<stop  offset="0.459" style="stop-color:#FFB09A"/>
						<stop  offset="0.7805" style="stop-color:#FFA086"/>
						<stop  offset="1" style="stop-color:#FF9A7F"/>
					</linearGradient>
					<path style="fill:url(#SVGID_00000080195121820541858130000001672148469806833318_);" d="M415.108,500h22.81
						c-0.352-2.893-0.773-5.799-1.209-8.764c-0.982-6.679-6.067-12.389-13.488-11.214c-0.163,0.026-0.326,0.056-0.487,0.091
						c-1.581,0.341-3.077,1.071-4.318,2.107c-4.62,3.859-3.782,8.537-3.549,13.91C414.892,496.683,414.977,498.032,415.108,500z"/>
				</g>
			</g>
			<g>
				
					<linearGradient id="SVGID_00000114754456046483795920000007292588524307762097_" gradientUnits="userSpaceOnUse" x1="-577.4556" y1="1404.7965" x2="-562.6757" y2="1504.8019" gradientTransform="matrix(-0.9739 0.2272 0.2272 0.9739 -425.6625 -838.4257)">
					<stop  offset="0" style="stop-color:#FFD1C1"/>
					<stop  offset="0.5409" style="stop-color:#FFB19B"/>
					<stop  offset="1" style="stop-color:#FF9A7F"/>
				</linearGradient>
				<path style="fill:url(#SVGID_00000114754456046483795920000007292588524307762097_);" d="M449.645,399.724
					c7.857-3.193,18.241,0.46,23.911,9.617c9.332,15.073,2.402,35.608-0.532,51.558c-1.208,6.563-3.154,12.983-4.347,19.562
					c-1.566,8.635-1.734,20.922-14.084,19.205c-8.487-1.18-9.33-7.711-10.396-14.762c-2.025-13.403-3.199-26.983-4.558-40.465
					c-1.04-10.319-1.786-21.173,0.184-31.425C441.178,405.963,444.963,401.627,449.645,399.724z"/>
				<g>
					
						<linearGradient id="SVGID_00000032626582866937603710000011671372979896536960_" gradientUnits="userSpaceOnUse" x1="-556.8706" y1="1604.2604" x2="-556.8706" y2="1483.6031" gradientTransform="matrix(-0.9739 0.2272 0.2272 0.9739 -425.6625 -838.4257)">
						<stop  offset="0" style="stop-color:#FFD1C1"/>
						<stop  offset="0.2199" style="stop-color:#FFCBBA"/>
						<stop  offset="0.5446" style="stop-color:#FFBAA6"/>
						<stop  offset="0.9327" style="stop-color:#FF9F85"/>
						<stop  offset="1" style="stop-color:#FF9A7F"/>
					</linearGradient>
					<path style="fill:url(#SVGID_00000032626582866937603710000011671372979896536960_);" d="M446.699,500h23.461
						c-0.962-3.533-2.061-7.048-3.198-10.65c-2.032-6.438-7.961-11.266-15.099-8.926c-0.157,0.052-0.313,0.107-0.466,0.167
						c-1.507,0.587-2.867,1.546-3.928,2.767c-3.947,4.544-2.376,9.03-1.292,14.298C446.258,498.049,446.439,498.858,446.699,500z"/>
				</g>
			</g>
			<path style="fill:#FEAF12;" d="M405.205,322.66c-2.285,2.636-5.069,4.693-8.551,4.557c-4.83-0.189-6.699-3.212-6.931-7.871
				c0-0.008-0.001-0.017-0.001-0.026c-0.093-1.765-0.055-3.543,0.5-5.221c1.522-4.598,3.415-9.077,5.577-13.398
				c2.888-5.771,6.208-11.329,9.929-16.602c3.25-4.605,13.333-20.636,19.271-10.862c1.479,2.436,1.295,5.501,0.589,8.154
				C423.283,290.059,411.499,311.528,405.205,322.66z"/>
			<path style="fill:#FEAF12;" d="M389.682,317.477c0,0,12.288-13.931,18.921-5.483c6.633,8.448,9.819,21.217,25.961,48.441
				l-17.882,3.705C416.682,364.141,387.71,329.702,389.682,317.477z"/>
			<path style="fill:#0A1123;" d="M464.839,210.241c8.643,9.24,10.637,24.324,6.308,37.263c-1.545,4.617-4.474,8.367-6.324,12.71
				c-1.42,3.336-1.701,6.865-3.525,10.182c-3.789,6.889-9.743,12.57-12.176,20.193c-1.362,4.269-1.453,8.853-2.711,13.154
				c-2.475,8.457-9.031,14.711-14.918,20.914c-3.03,3.193-6.32,6.493-8.581,10.304c-2.255,3.799-4.279,7.945-8.679,9.766
				c-1.949,0.806-4.095,0.963-6.199,1.111c-1.443,0.101-2.911,0.201-4.322-0.122c-1.41-0.322-2.78-1.134-3.426-2.428
				c-1.091-2.187,0.171-4.739,0.64-7.138c0.896-4.585-1.385-7.984-4.343-11.152c-3.672-3.934-3.655-10.005-2.807-15.319
				c0.539-3.374,1.325-6.722,2.587-9.897c3.429-8.627,10.128-15.487,14.961-23.413c6.433-10.549,8.654-22.02,8.698-34.21
				c0.039-10.718-3.347-21.111,3.879-30.612c5.706-7.503,14.436-10.762,23.719-9.702
				C454.937,202.678,460.664,205.778,464.839,210.241z"/>
			<path style="fill:#0A1123;" d="M464.248,212.773c4.056,6.029,5.801,13.844,4.102,21.718c-1.75,8.111-6.689,15.762-13.223,20.85
				c-7.164,5.579-15.377,5.317-23.142,0.827c-5.095-2.946-9.192-7.437-12.195-12.499c-10.86-18.31,5.826-44.544,26.996-41.825
				C453.922,202.76,460.252,206.833,464.248,212.773z"/>
			<path style="fill:#0F2363;" d="M475.177,364.141c0,0,11.162,16.67,11.568,46.198l-5.539,62.476c0,0-59.738,10.471-81.329-4.004
				c0,0,10.058-91.735,19.787-104.67H475.177z"/>
			
				<linearGradient id="SVGID_00000057848193304226432310000001882888730047459759_" gradientUnits="userSpaceOnUse" x1="-1066.5039" y1="368.9767" x2="-1066.5039" y2="242.9328" gradientTransform="matrix(-1 0 0 1 -621.1195 0)">
				<stop  offset="0" style="stop-color:#FFD1C1"/>
				<stop  offset="0.4889" style="stop-color:#FFCFBF"/>
				<stop  offset="0.665" style="stop-color:#FFCAB8"/>
				<stop  offset="0.7905" style="stop-color:#FFC0AD"/>
				<stop  offset="0.892" style="stop-color:#FFB29C"/>
				<stop  offset="0.9779" style="stop-color:#FFA086"/>
				<stop  offset="1" style="stop-color:#FF9A7F"/>
			</linearGradient>
			<path style="fill:url(#SVGID_00000057848193304226432310000001882888730047459759_);" d="M414.431,304.771
				c0.63-6.609,14.083-36.663,14.083-36.663s4.586,0.465,6.944-0.364c1.173-5.056-0.509-10.901-0.509-10.901l13.956-13.91
				c-1.649,15.237,5.019,22.426,5.019,22.426c2.188,0.119,8.759-1.271,11.968-0.849c7.009,0.922,10.446,5.752,10.446,5.752
				s-8.355,31.325-8.847,47.311c-0.492,15.987,8.916,51.404,8.916,51.404l-57.811-0.175c3.934-15.984,6.591-38.683,6.592-38.686
				C426.805,317.959,413.286,316.784,414.431,304.771z"/>
			<path style="fill:#FEAF12;" d="M457.166,387.301c0.034-0.004,0.067-0.007,0.101-0.012c0.341-0.032,0.665-0.084,0.972-0.151
				c8.447-1.449,19.989-7.215,24.703-9.013c0.006-0.002-15.943-44.566-15.451-60.553c0.492-15.987,8.847-47.311,8.847-47.311
				s-3.436-4.83-10.446-5.753c-3.209-0.422-6.088-0.645-8.276-0.764c-2.054-0.281-4.185,0.638-6.204,2.036
				c-0.165,0.025-1.084,0.799-1.084,0.799c-1.749,1.374-4.809,5.334-4.849,5.785l-2.47,2.947c-2.171,2.59-6.386,1.346-6.809-2.007
				c-0.313-2.479-0.595-4.663-0.699-5.332c0.004-0.158,0.008-0.324,0.011-0.476c-4.655-0.763-6.997,0.61-6.997,0.61
				s-14.761,30.054-15.391,36.663c-1.145,12.014,9.539,14.327,7.921,26.485c-0.001,0.003-4.861,31.597-8.795,47.58
				c-0.037,0.15,0.63,0.51,1.671,0.961c0,0.001,0,0.003-0.001,0.003c10.298,5.148,21.86,8.549,40.394,7.664
				c0.836,0.026,1.739-0.029,2.69-0.146c0.007-0.001,0.014-0.001,0.021-0.001C457.074,387.315,457.117,387.305,457.166,387.301z"/>
			<path style="fill:#FD6007;" d="M467.491,317.573c0.268-8.719,2.875-21.994,5.19-32.268c-0.592,0.297-1.172,0.619-1.728,0.992
				c-7.43,4.985-9.631,13.638-14.949,20.248c-10.008,12.439-30.047,5.086-42.745,1.483c-0.048-0.014-0.084-0.037-0.131-0.051
				c0.724,8.163,7.366,11.458,8.03,19.521c5.681,1.392,11.264,3.331,16.956,4.781c3.539,0.901,8.216,1.906,11.996,3.909
				c5.436,2.563,8.354,7.481,9.19,13.87c1.003,7.671-0.837,15.223-1.28,22.855c-0.273,4.714-0.5,9.522-0.501,14.337
				c0.246-0.031,0.492-0.062,0.72-0.111c8.447-1.449,19.989-7.215,24.703-9.013C482.947,378.124,466.999,333.56,467.491,317.573z"/>
			<path style="fill:#FEAF12;" d="M486.385,318.403c2.285,2.636,5.069,4.693,8.551,4.557c4.83-0.189,6.699-3.212,6.931-7.871
				c0-0.009,0.001-0.017,0.001-0.026c0.093-1.765,0.055-3.543-0.5-5.22c-1.522-4.598-3.415-9.077-5.577-13.398
				c-2.888-5.771-6.208-11.329-9.929-16.602c-3.25-4.605-13.333-20.636-19.271-10.862c-1.479,2.436-1.295,5.501-0.589,8.154
				C468.307,285.802,480.091,307.272,486.385,318.403z"/>
			<g>
				
					<linearGradient id="SVGID_00000121242912636951290600000002927853075313427607_" gradientUnits="userSpaceOnUse" x1="-1903.7821" y1="2280.4246" x2="-1881.0465" y2="2280.4246" gradientTransform="matrix(0.6818 0.7315 0.7315 -0.6818 90.0283 3302.613)">
					<stop  offset="0" style="stop-color:#FFD1C1"/>
					<stop  offset="0.3445" style="stop-color:#FFBAA5"/>
					<stop  offset="0.7588" style="stop-color:#FFA389"/>
					<stop  offset="1" style="stop-color:#FF9A7F"/>
				</linearGradient>
				<path style="fill:url(#SVGID_00000121242912636951290600000002927853075313427607_);" d="M469.507,369.424l-0.94,1.143
					c-1.503,2.002-5.37,1.774-7.872,0.393l-3.334-0.822c-0.114-0.19-0.133-1.325-0.1-2.654c0.07-2.882,0.975-5.685,2.593-8.07
					l5.874-8.658c0.026-0.064,0.057-0.125,0.09-0.185l0.759-1.349l5.784,1.555c0.814,0.201,1.389,0.951,1.33,1.788
					c-0.465,6.597-2.686,14.504-3.343,16.731C470.229,369.7,469.333,369.041,469.507,369.424z"/>
				<path style="fill:#FEAF12;" d="M501.907,313.221c0,0-12.288-13.931-18.921-5.483c-6.633,8.448-9.819,21.217-25.961,48.441
					l17.882,3.706C474.908,359.884,503.88,325.445,501.907,313.221z"/>
			</g>
			
				<rect x="455.481" y="366.661" transform="matrix(-0.9985 0.0555 -0.0555 -0.9985 950.5654 712.5262)" style="fill:#DD8614;" width="19.822" height="5.594"/>
			<g>
				<g>
					<g>
						
							<linearGradient id="SVGID_00000181793062127614007620000007192794816018916532_" gradientUnits="userSpaceOnUse" x1="-1079.2231" y1="240.2368" x2="-1040.7465" y2="240.2368" gradientTransform="matrix(-1 0 0 1 -621.1195 0)">
							<stop  offset="0" style="stop-color:#FFD1C1"/>
							<stop  offset="0.3861" style="stop-color:#FFCFBF"/>
							<stop  offset="0.5877" style="stop-color:#FFC9B7"/>
							<stop  offset="0.7467" style="stop-color:#FFBDA9"/>
							<stop  offset="0.8825" style="stop-color:#FFAE97"/>
							<stop  offset="1" style="stop-color:#FF9A7F"/>
						</linearGradient>
						<path style="fill:url(#SVGID_00000181793062127614007620000007192794816018916532_);" d="M421.395,223.097
							c-1.528,8.883-7.205,24.571,15.246,40.728c0,0,9.941-2.638,19.546-16.044C467.569,231.894,424.68,203.992,421.395,223.097z"/>
					</g>
					
						<linearGradient id="SVGID_00000037687050538482124940000009388010741340267152_" gradientUnits="userSpaceOnUse" x1="-1057.6334" y1="236.9699" x2="-1051.9446" y2="246.8234" gradientTransform="matrix(-1 0 0 1 -621.1195 0)">
						<stop  offset="0" style="stop-color:#EEA281"/>
						<stop  offset="0.246" style="stop-color:#EE9C7B"/>
						<stop  offset="0.5823" style="stop-color:#ED8A6C"/>
						<stop  offset="0.9693" style="stop-color:#EC6E52"/>
						<stop  offset="1" style="stop-color:#EC6B50"/>
					</linearGradient>
					<polygon style="fill:url(#SVGID_00000037687050538482124940000009388010741340267152_);" points="432.906,234.887 
						435.817,246.509 431.97,247.484 					"/>
				</g>
				<path style="fill:#0A1123;" d="M429.387,208.759c-0.821,3.245-9.123,12.42-9.123,12.42c11.706,10.772,28.584,4.676,28.584,4.676
					l3.232,14.719c0,0,5.143-11.582,5.15-11.584c0.801-0.268,6.45-2.991,6.506-3.696c0.465-5.87-0.377-12.52-4.311-17.166
					c-3.553-4.197-9.424-5.861-14.761-5.153C438.862,203.744,430.627,203.858,429.387,208.759z"/>
			</g>
			
				<linearGradient id="SVGID_00000008854730720758294100000014578838539689409691_" gradientUnits="userSpaceOnUse" x1="-1077.6316" y1="251.476" x2="-1077.6316" y2="230.8955" gradientTransform="matrix(-1 0 0 1 -621.1195 0)">
				<stop  offset="0" style="stop-color:#FFD1C1"/>
				<stop  offset="0.3073" style="stop-color:#FFCCBB"/>
				<stop  offset="0.729" style="stop-color:#FFBDA9"/>
				<stop  offset="1" style="stop-color:#FFB19A"/>
			</linearGradient>
			<path style="fill:url(#SVGID_00000008854730720758294100000014578838539689409691_);" d="M452.08,235.723
				c0,0,3.389-7.278,7.168-3.961c3.78,3.316,1.173,16.951-7.168,19.714V235.723z"/>
		</g>
	</g>
	<g>
		<path style="fill:#DB277D;" d="M406.991,73.275l-65.606,29.486c-9.614,4.499-13.76,15.941-9.261,25.555l18.89,40.362
			l65.606-29.486L406.991,73.275z"/>
		<path style="fill:#0A1123;" d="M451.436,122.897l-34.815,16.294l-18.89-40.362c-4.5-9.614-0.353-21.055,9.261-25.555l0,0
			c9.614-4.499,21.055-0.353,25.555,9.261L451.436,122.897z"/>
		
			<linearGradient id="SVGID_00000175301488742582120410000003602772479534793120_" gradientUnits="userSpaceOnUse" x1="383.8233" y1="100.7834" x2="480.5397" y2="100.7834">
			<stop  offset="0" style="stop-color:#F9FBFC"/>
			<stop  offset="0.3069" style="stop-color:#F0F5FD"/>
			<stop  offset="0.8031" style="stop-color:#D8E3FE"/>
			<stop  offset="0.9973" style="stop-color:#CDDBFF"/>
		</linearGradient>
		<polygon style="fill:url(#SVGID_00000175301488742582120410000003602772479534793120_);" points="480.54,108.241 398.916,136.666 
			383.823,93.326 465.447,64.901 		"/>
		<polygon style="fill:#FEAF12;" points="465.447,64.901 432.182,100.783 383.823,93.326 385.027,96.782 432.777,103.838 
			466.438,67.745 		"/>
		<path style="fill:#DB277D;" d="M378.358,156.387l38.262-17.196l-18.89-40.362c-4.5-9.614-0.353-21.055,9.261-25.555l0,0
			c9.614-4.499-57.248,28.077-52.749,37.691L378.358,156.387z"/>
		<path style="fill:#FEAF12;" d="M356.085,117.817c-3.983-8.512-1.565-18.358,5.265-24.165l-4.13,1.856
			c-9.614,4.499-13.76,15.941-9.261,25.555l18.89,40.362l7.968-3.581L356.085,117.817z"/>
		<path style="fill:#FEAF12;" d="M379.428,107.559c-3.983-8.512-1.565-18.358,5.265-24.165l-4.129,1.856
			c-9.614,4.5-13.76,15.941-9.261,25.555l18.89,40.362l7.968-3.581L379.428,107.559z"/>
		<polygon style="fill:#DB277D;" points="333.71,72.611 316.276,81.117 329.483,96.782 346.143,89.078 		"/>
		
			<rect x="346.591" y="63.832" transform="matrix(0.7799 -0.6259 0.6259 0.7799 19.3402 238.2998)" style="fill:#0A1123;" width="3.816" height="55.638"/>
		<path style="fill:#0A1123;" d="M416.621,139.191l36.638,14.053c4.928,1.89,10.503,0.797,14.352-2.815h0
			c7.36-6.906,5.036-19.121-4.346-22.841l-11.829-4.691L416.621,139.191z"/>
		<path style="fill:#0A1123;" d="M371.562,111.963c0,4.487-3.638,8.125-8.125,8.125c-4.487,0-8.125-3.638-8.125-8.125
			c0-4.487,3.638-8.125,8.125-8.125C367.924,103.838,371.562,107.475,371.562,111.963z"/>
		<path style="fill:#DB277D;" d="M368.755,111.963c0,2.937-2.381,5.318-5.318,5.318c-2.937,0-5.318-2.381-5.318-5.318
			c0-2.937,2.381-5.318,5.318-5.318C366.374,106.645,368.755,109.026,368.755,111.963z"/>
	</g>
</g>
<g id="DESIGNED_BY_FREEPIK">
	<g>
		<g id="XMLID_25_">
			<g id="XMLID_44_">
				<path id="XMLID_52_" style="fill:#F9FBFC;" d="M385.104,457.132c-0.432,0.443-0.803,0.931-1.109,1.453l-0.465-0.241
					c-0.067-0.298-0.349-0.503-0.659-0.466c-0.331,0.039-0.568,0.339-0.529,0.67c0.039,0.331,0.339,0.568,0.67,0.529
					c0.065-0.008,0.127-0.026,0.183-0.052l0.451,0.234c-0.251,0.554-0.433,1.139-0.539,1.744l0.746,0.132
					c0.23-1.306,0.85-2.507,1.792-3.473L385.104,457.132z"/>
				<path id="XMLID_51_" style="fill:#F9FBFC;" d="M390.592,454.83c-0.171,0-0.341,0.006-0.51,0.017l-0.074-0.626
					c0.188-0.149,0.296-0.389,0.266-0.645c-0.046-0.393-0.402-0.674-0.795-0.628c-0.393,0.046-0.674,0.402-0.628,0.795
					c0.03,0.254,0.189,0.461,0.404,0.564l0.074,0.624c-0.714,0.116-1.403,0.332-2.06,0.646l0.327,0.684
					c0.934-0.447,1.942-0.673,2.995-0.673c0.496,0,0.993,0.053,1.475,0.158l0.16-0.741
					C391.692,454.888,391.142,454.83,390.592,454.83z"/>
				<path id="XMLID_50_" style="fill:#F9FBFC;" d="M397.194,457.377c0.331-0.04,0.566-0.341,0.525-0.672
					c-0.04-0.331-0.341-0.566-0.672-0.526c-0.309,0.038-0.535,0.304-0.53,0.609l-0.416,0.363c-0.418-0.43-0.89-0.813-1.408-1.139
					l-0.404,0.641c1.134,0.715,2.02,1.726,2.563,2.925l0.69-0.313c-0.251-0.554-0.568-1.072-0.942-1.545l0.402-0.351
					C397.065,457.382,397.129,457.385,397.194,457.377z"/>
				<path id="XMLID_49_" style="fill:#F9FBFC;" d="M390.044,465.038c-0.386,0.023-0.775,0.035-1.157,0.035
					c-0.88,0-1.733-0.061-2.478-0.179c-0.39-0.062-0.846-0.155-1.27-0.292c1.046,1.861,3.069,3.125,5.388,3.125
					c2.855,0,5.262-1.916,5.95-4.504c-0.682,0.449-1.505,0.825-2.459,1.123C392.839,464.713,391.464,464.953,390.044,465.038z"/>
				<path id="XMLID_45_" style="fill:#F9FBFC;" d="M390.592,456.346c-3.352,0-6.08,2.666-6.08,5.944
					c0,0.425,0.046,0.849,0.137,1.261c0.674,0.483,2.706,0.89,5.348,0.731c2.88-0.173,5.297-0.957,6.672-2.159
					c-0.005-0.195-0.021-0.39-0.045-0.582C396.244,458.579,393.651,456.346,390.592,456.346z M388.432,462.861
					c-1.02,0-1.85-0.83-1.85-1.85c0-1.02,0.83-1.85,1.85-1.85s1.85,0.83,1.85,1.85C390.282,462.031,389.452,462.861,388.432,462.861
					z M393.17,461.952c-0.75,0-1.36-0.61-1.36-1.36s0.61-1.361,1.36-1.361c0.75,0,1.361,0.61,1.361,1.361
					S393.92,461.952,393.17,461.952z"/>
			</g>
			<path id="XMLID_42_" style="fill:#F9FBFC;" d="M406.595,458.213c-0.295-0.116-0.805-0.309-1.382-0.237
				c-0.551,0.069-0.844,0.341-0.844,1.007v0.866h2.228v1.717h-2.228v5.455h-1.932v-5.455h-1.339v-1.717h1.339v-0.888
				c0-1.68,0.896-2.783,2.568-2.783c0.642,0,1.157,0.122,1.59,0.308L406.595,458.213z"/>
			<path id="XMLID_40_" style="fill:#F9FBFC;" d="M411.298,461.545c-0.177-0.03-0.358-0.046-0.526-0.046
				c-0.896,0-1.51,0.548-1.51,1.614v3.908h-1.932v-7.172h1.873v0.785c0.451-0.673,1.14-0.977,2.021-0.977
				c0.414,0,0.848,0.128,1.094,0.337L411.298,461.545z"/>
			<path id="XMLID_37_" style="fill:#F9FBFC;" d="M418.965,463.423c0,0.222-0.015,0.489-0.037,0.651h-5.085
				c0.207,1.036,0.933,1.488,1.843,1.488c0.622,0,1.295-0.252,1.813-0.688l1.132,1.243c-0.814,0.748-1.85,1.088-3.057,1.088
				c-2.198,0-3.723-1.495-3.723-3.753c0-2.258,1.48-3.797,3.627-3.797C417.544,459.656,418.958,461.188,418.965,463.423z
				 M413.851,462.757h3.175c-0.178-0.918-0.733-1.436-1.562-1.436C414.554,461.321,414.021,461.869,413.851,462.757z"/>
			<path id="XMLID_34_" style="fill:#F9FBFC;" d="M426.618,463.423c0,0.222-0.015,0.489-0.037,0.651h-5.085
				c0.207,1.036,0.933,1.488,1.843,1.488c0.622,0,1.295-0.252,1.813-0.688l1.132,1.243c-0.814,0.748-1.85,1.088-3.057,1.088
				c-2.198,0-3.723-1.495-3.723-3.753c0-2.258,1.48-3.797,3.626-3.797C425.197,459.656,426.611,461.188,426.618,463.423z
				 M421.504,462.757h3.175c-0.178-0.918-0.733-1.436-1.562-1.436C422.207,461.321,421.674,461.869,421.504,462.757z"/>
			<path id="XMLID_31_" style="fill:#F9FBFC;" d="M434.964,463.431c0,2.154-1.495,3.775-3.471,3.775
				c-0.962,0-1.643-0.378-2.109-0.933v3.708h-1.924v-10.133h1.887v0.792c0.466-0.585,1.155-0.984,2.139-0.984
				C433.469,459.656,434.964,461.277,434.964,463.431z M429.287,463.431c0,1.132,0.747,1.976,1.843,1.976
				c1.14,0,1.85-0.881,1.85-1.976c0-1.095-0.71-1.976-1.85-1.976C430.035,461.454,429.287,462.298,429.287,463.431z"/>
			<path id="XMLID_28_" style="fill:#F9FBFC;" d="M438.068,457.502c0,0.696-0.54,1.229-1.236,1.229
				c-0.696,0-1.229-0.533-1.229-1.229c0-0.696,0.533-1.243,1.229-1.243C437.527,456.259,438.068,456.806,438.068,457.502z
				 M437.809,467.02h-1.932v-7.172h1.932V467.02z"/>
			<path id="XMLID_26_" style="fill:#F9FBFC;" d="M441.032,462.402l2.701-2.554h2.368l-3.479,3.375l3.501,3.797h-2.376l-2.716-2.901
				v2.901h-1.932v-10.658h1.932V462.402z"/>
		</g>
		<g>
			<path style="fill:#F9FBFC;" d="M309.412,466.955V465.9c-0.527,0.718-1.391,1.23-2.387,1.23c-1.846,0-3.149-1.406-3.149-3.706
				c0-2.256,1.289-3.721,3.149-3.721c0.952,0,1.816,0.469,2.387,1.245v-3.765h1.099v9.77H309.412z M309.412,465.036v-3.208
				c-0.395-0.615-1.245-1.143-2.124-1.143c-1.421,0-2.27,1.172-2.27,2.739c0,1.567,0.85,2.724,2.27,2.724
				C308.168,466.15,309.017,465.652,309.412,465.036z"/>
			<path style="fill:#F9FBFC;" d="M311.932,463.41c0-2.051,1.465-3.706,3.486-3.706c2.139,0,3.398,1.67,3.398,3.794v0.279h-5.727
				c0.088,1.333,1.026,2.446,2.549,2.446c0.805,0,1.626-0.322,2.182-0.893l0.527,0.718c-0.703,0.703-1.655,1.084-2.813,1.084
				C313.44,467.131,311.932,465.622,311.932,463.41z M315.403,460.613c-1.509,0-2.256,1.274-2.314,2.358h4.643
				C317.718,461.916,317.014,460.613,315.403,460.613z"/>
			<path style="fill:#F9FBFC;" d="M319.607,466.018l0.571-0.791c0.469,0.542,1.362,1.011,2.329,1.011c1.084,0,1.67-0.513,1.67-1.216
				c0-1.714-4.38-0.659-4.38-3.281c0-1.098,0.952-2.036,2.636-2.036c1.201,0,2.051,0.454,2.622,1.026l-0.513,0.762
				c-0.424-0.513-1.201-0.894-2.109-0.894c-0.967,0-1.567,0.483-1.567,1.113c0,1.552,4.38,0.527,4.38,3.281
				c0,1.187-0.952,2.138-2.783,2.138C321.306,467.131,320.325,466.779,319.607,466.018z"/>
			<path style="fill:#F9FBFC;" d="M326.477,458.137c0-0.41,0.337-0.747,0.732-0.747c0.41,0,0.747,0.337,0.747,0.747
				c0,0.41-0.337,0.732-0.747,0.732C326.814,458.869,326.477,458.547,326.477,458.137z M326.667,466.955v-7.075h1.099v7.075H326.667
				z"/>
			<path style="fill:#F9FBFC;" d="M329.582,468.772l0.556-0.82c0.586,0.703,1.289,0.967,2.3,0.967c1.172,0,2.27-0.571,2.27-2.124
				v-1.011c-0.513,0.718-1.377,1.26-2.373,1.26c-1.845,0-3.149-1.377-3.149-3.662c0-2.27,1.289-3.677,3.149-3.677
				c0.952,0,1.802,0.469,2.373,1.245v-1.069h1.099v6.87c0,2.344-1.64,3.076-3.369,3.076
				C331.237,469.826,330.417,469.592,329.582,468.772z M334.709,464.919v-3.091c-0.381-0.615-1.23-1.143-2.109-1.143
				c-1.421,0-2.27,1.128-2.27,2.695c0,1.553,0.849,2.695,2.27,2.695C333.478,466.076,334.328,465.534,334.709,464.919z"/>
			<path style="fill:#F9FBFC;" d="M342.413,466.955v-4.629c0-1.245-0.63-1.641-1.582-1.641c-0.865,0-1.685,0.527-2.095,1.099v5.17
				h-1.099v-7.075h1.099v1.025c0.498-0.586,1.464-1.201,2.519-1.201c1.48,0,2.256,0.747,2.256,2.285v4.966H342.413z"/>
			<path style="fill:#F9FBFC;" d="M344.932,463.41c0-2.051,1.465-3.706,3.486-3.706c2.138,0,3.398,1.67,3.398,3.794v0.279h-5.727
				c0.088,1.333,1.025,2.446,2.549,2.446c0.806,0,1.626-0.322,2.183-0.893l0.527,0.718c-0.703,0.703-1.655,1.084-2.812,1.084
				C346.441,467.131,344.932,465.622,344.932,463.41z M348.404,460.613c-1.509,0-2.256,1.274-2.314,2.358h4.643
				C350.718,461.916,350.015,460.613,348.404,460.613z"/>
			<path style="fill:#F9FBFC;" d="M358.35,466.955V465.9c-0.527,0.718-1.392,1.23-2.388,1.23c-1.846,0-3.149-1.406-3.149-3.706
				c0-2.256,1.289-3.721,3.149-3.721c0.952,0,1.817,0.469,2.388,1.245v-3.765h1.098v9.77H358.35z M358.35,465.036v-3.208
				c-0.396-0.615-1.245-1.143-2.124-1.143c-1.421,0-2.27,1.172-2.27,2.739c0,1.567,0.85,2.724,2.27,2.724
				C357.105,466.15,357.954,465.652,358.35,465.036z"/>
			<path style="fill:#F9FBFC;" d="M364.692,466.955v-9.77h1.099v3.765c0.572-0.776,1.421-1.245,2.388-1.245
				c1.845,0,3.149,1.465,3.149,3.721c0,2.299-1.304,3.706-3.149,3.706c-0.996,0-1.86-0.513-2.388-1.23v1.055H364.692z M367.9,466.15
				c1.436,0,2.286-1.157,2.286-2.724c0-1.568-0.85-2.739-2.286-2.739c-0.864,0-1.728,0.527-2.109,1.143v3.208
				C366.171,465.652,367.036,466.15,367.9,466.15z"/>
			<path style="fill:#F9FBFC;" d="M372.528,468.728c0.161,0.073,0.425,0.117,0.601,0.117c0.483,0,0.806-0.161,1.055-0.747
				l0.469-1.069l-2.959-7.148h1.187l2.358,5.8l2.344-5.8h1.201l-3.545,8.51c-0.425,1.025-1.143,1.421-2.08,1.435
				c-0.234,0-0.601-0.044-0.805-0.103L372.528,468.728z"/>
		</g>
	</g>
	<g>
		<path style="fill-rule:evenodd;clip-rule:evenodd;fill:#FFFFFF;" d="M636.832,402.904c0,0-3.18-0.311-5.803-3.058
			c-2.193-2.297-2.963-4.575-3.234-5.893c-0.271,1.318-1.041,3.596-3.234,5.893c-2.623,2.747-5.803,3.058-5.803,3.058l0.078,0.086
			l-0.078,0.086c0,0,3.18,0.311,5.803,3.058c2.193,2.297,2.963,4.575,3.234,5.893c0.271-1.318,1.041-3.596,3.234-5.893
			c2.623-2.747,5.803-3.058,5.803-3.058l-0.078-0.086L636.832,402.904z"/>
		<path style="fill-rule:evenodd;clip-rule:evenodd;fill:#FFFFFF;" d="M486.647,160.654c0,0-1.808-0.177-3.299-1.739
			c-1.247-1.306-1.685-2.601-1.839-3.35c-0.154,0.749-0.592,2.045-1.839,3.35c-1.491,1.562-3.299,1.739-3.299,1.739l0.044,0.049
			l-0.044,0.049c0,0,1.808,0.177,3.299,1.739c1.247,1.306,1.685,2.601,1.839,3.351c0.154-0.75,0.592-2.045,1.839-3.351
			c1.491-1.562,3.299-1.739,3.299-1.739l-0.044-0.049L486.647,160.654z"/>
		<path style="fill-rule:evenodd;clip-rule:evenodd;fill:#FFFFFF;" d="M142.325,222.128c0,0-1.808-0.177-3.299-1.739
			c-1.247-1.306-1.685-2.601-1.839-3.35c-0.154,0.75-0.592,2.045-1.839,3.35c-1.491,1.562-3.299,1.739-3.299,1.739l0.045,0.049
			l-0.045,0.049c0,0,1.808,0.177,3.299,1.739c1.247,1.306,1.685,2.601,1.839,3.35c0.154-0.749,0.592-2.044,1.839-3.35
			c1.491-1.562,3.299-1.739,3.299-1.739l-0.044-0.049L142.325,222.128z"/>
		<path style="fill-rule:evenodd;clip-rule:evenodd;fill:#FFFFFF;" d="M677.048,308.391c0,0-1.808-0.177-3.299-1.739
			c-1.247-1.306-1.684-2.601-1.839-3.35c-0.154,0.749-0.592,2.044-1.839,3.35c-1.491,1.562-3.299,1.739-3.299,1.739l0.045,0.049
			l-0.045,0.049c0,0,1.808,0.177,3.299,1.739c1.247,1.306,1.685,2.601,1.839,3.35c0.154-0.75,0.592-2.044,1.839-3.35
			c1.491-1.562,3.299-1.739,3.299-1.739l-0.044-0.049L677.048,308.391z"/>
		<path style="fill-rule:evenodd;clip-rule:evenodd;fill:#FFFFFF;" d="M275.694,118.685c0,0-1.808-0.177-3.299-1.739
			c-1.247-1.306-1.685-2.601-1.839-3.35c-0.154,0.749-0.592,2.045-1.839,3.35c-1.491,1.562-3.299,1.739-3.299,1.739l0.044,0.049
			l-0.044,0.049c0,0,1.808,0.177,3.299,1.739c1.247,1.306,1.685,2.601,1.839,3.35c0.154-0.749,0.592-2.045,1.839-3.35
			c1.491-1.562,3.299-1.739,3.299-1.739l-0.044-0.049L275.694,118.685z"/>
		<path style="fill-rule:evenodd;clip-rule:evenodd;fill:#FFFFFF;" d="M132.049,447.231c0,0-1.808-0.177-3.299-1.739
			c-1.247-1.306-1.685-2.601-1.839-3.35c-0.154,0.749-0.592,2.044-1.839,3.35c-1.491,1.562-3.299,1.739-3.299,1.739l0.045,0.049
			l-0.045,0.049c0,0,1.808,0.177,3.299,1.739c1.247,1.306,1.685,2.601,1.839,3.35c0.154-0.749,0.592-2.044,1.839-3.35
			c1.491-1.562,3.299-1.739,3.299-1.739l-0.045-0.049L132.049,447.231z"/>
	</g>
</g>
</svg>
